<mxfile host="app.diagrams.net" modified="2024-03-18T08:12:40.140Z" agent="Mozilla/5.0 (Macintosh; Intel Mac OS X 10_15_7) AppleWebKit/537.36 (KHTML, like Gecko) Chrome/122.0.0.0 Safari/537.36" etag="FNNHSnlArQjguPm76riD" version="24.0.6" type="device">
  <diagram name="Page-1" id="bZVhlaiccARGLJBM7R8s">
    <mxGraphModel dx="1235" dy="733" grid="1" gridSize="10" guides="1" tooltips="1" connect="1" arrows="1" fold="1" page="1" pageScale="1" pageWidth="827" pageHeight="1169" math="0" shadow="0">
      <root>
        <mxCell id="0" />
        <mxCell id="1" parent="0" />
        <mxCell id="NOVL12IJOXNxeHSRMeuN-2" value="" style="rounded=0;whiteSpace=wrap;html=1;gradientColor=none;" parent="1" vertex="1">
          <mxGeometry x="25" y="290" width="750" height="830" as="geometry" />
        </mxCell>
        <mxCell id="NOVL12IJOXNxeHSRMeuN-4" value=":presentation" style="shape=module;align=left;spacingLeft=20;align=center;verticalAlign=top;whiteSpace=wrap;html=1;" parent="1" vertex="1">
          <mxGeometry x="350" y="400" width="100" height="50" as="geometry" />
        </mxCell>
        <mxCell id="NOVL12IJOXNxeHSRMeuN-5" value=":data" style="shape=module;align=left;spacingLeft=20;align=center;verticalAlign=top;whiteSpace=wrap;html=1;" parent="1" vertex="1">
          <mxGeometry x="350" y="610" width="100" height="50" as="geometry" />
        </mxCell>
        <mxCell id="NOVL12IJOXNxeHSRMeuN-6" value=":domain" style="shape=module;align=left;spacingLeft=20;align=center;verticalAlign=top;whiteSpace=wrap;html=1;" parent="1" vertex="1">
          <mxGeometry x="350" y="510" width="100" height="50" as="geometry" />
        </mxCell>
        <mxCell id="NOVL12IJOXNxeHSRMeuN-7" value="core:testing" style="shape=module;align=left;spacingLeft=20;align=center;verticalAlign=top;whiteSpace=wrap;html=1;" parent="1" vertex="1">
          <mxGeometry x="60" y="507" width="110" height="50" as="geometry" />
        </mxCell>
        <mxCell id="NOVL12IJOXNxeHSRMeuN-8" value=":core:uiWidget" style="shape=module;align=left;spacingLeft=20;align=center;verticalAlign=top;whiteSpace=wrap;html=1;" parent="1" vertex="1">
          <mxGeometry x="560" y="400" width="120" height="50" as="geometry" />
        </mxCell>
        <mxCell id="NOVL12IJOXNxeHSRMeuN-9" value=":core:common" style="shape=module;align=left;spacingLeft=20;align=center;verticalAlign=top;whiteSpace=wrap;html=1;" parent="1" vertex="1">
          <mxGeometry x="560" y="508" width="120" height="50" as="geometry" />
        </mxCell>
        <mxCell id="NOVL12IJOXNxeHSRMeuN-10" value=":core:network" style="shape=module;align=left;spacingLeft=20;align=center;verticalAlign=top;whiteSpace=wrap;html=1;" parent="1" vertex="1">
          <mxGeometry x="350" y="722" width="100" height="50" as="geometry" />
        </mxCell>
        <mxCell id="NOVL12IJOXNxeHSRMeuN-12" value="" style="endArrow=open;endSize=12;dashed=1;html=1;rounded=0;exitX=0;exitY=0;exitDx=10;exitDy=0;exitPerimeter=0;strokeColor=#424242;" parent="1" source="NOVL12IJOXNxeHSRMeuN-6" edge="1">
          <mxGeometry width="160" relative="1" as="geometry">
            <mxPoint x="330" y="540" as="sourcePoint" />
            <mxPoint x="170" y="510" as="targetPoint" />
          </mxGeometry>
        </mxCell>
        <mxCell id="NOVL12IJOXNxeHSRMeuN-13" value="" style="endArrow=open;endSize=12;dashed=1;html=1;rounded=0;exitX=0;exitY=0;exitDx=10;exitDy=0;exitPerimeter=0;entryX=0.864;entryY=0.98;entryDx=0;entryDy=0;entryPerimeter=0;strokeColor=#424242;" parent="1" source="NOVL12IJOXNxeHSRMeuN-5" target="NOVL12IJOXNxeHSRMeuN-7" edge="1">
          <mxGeometry width="160" relative="1" as="geometry">
            <mxPoint x="330" y="620" as="sourcePoint" />
            <mxPoint x="490" y="620" as="targetPoint" />
            <Array as="points">
              <mxPoint x="155" y="610" />
            </Array>
            <mxPoint as="offset" />
          </mxGeometry>
        </mxCell>
        <mxCell id="NOVL12IJOXNxeHSRMeuN-21" value="" style="endArrow=open;endSize=12;dashed=1;html=1;rounded=0;exitX=0.07;exitY=0.2;exitDx=0;exitDy=0;exitPerimeter=0;entryX=0.5;entryY=0;entryDx=0;entryDy=0;strokeColor=#424242;" parent="1" source="NOVL12IJOXNxeHSRMeuN-4" target="NOVL12IJOXNxeHSRMeuN-7" edge="1">
          <mxGeometry width="160" relative="1" as="geometry">
            <mxPoint x="330" y="500" as="sourcePoint" />
            <mxPoint x="490" y="500" as="targetPoint" />
            <Array as="points">
              <mxPoint x="115" y="410" />
            </Array>
          </mxGeometry>
        </mxCell>
        <mxCell id="NOVL12IJOXNxeHSRMeuN-26" value="A" style="html=1;whiteSpace=wrap;" parent="1" vertex="1">
          <mxGeometry x="80" y="890" width="40" height="40" as="geometry" />
        </mxCell>
        <mxCell id="NOVL12IJOXNxeHSRMeuN-27" value="B" style="html=1;whiteSpace=wrap;" parent="1" vertex="1">
          <mxGeometry x="280" y="890" width="40" height="40" as="geometry" />
        </mxCell>
        <mxCell id="NOVL12IJOXNxeHSRMeuN-28" value="Represents A is dependent on B" style="text;align=center;fontStyle=1;verticalAlign=middle;spacingLeft=3;spacingRight=3;strokeColor=none;rotatable=0;points=[[0,0.5],[1,0.5]];portConstraint=eastwest;html=1;" parent="1" vertex="1">
          <mxGeometry x="150" y="940" width="80" height="26" as="geometry" />
        </mxCell>
        <mxCell id="NOVL12IJOXNxeHSRMeuN-29" value="Module Dependency" style="text;align=center;fontStyle=1;verticalAlign=middle;spacingLeft=3;spacingRight=3;strokeColor=none;rotatable=0;points=[[0,0.5],[1,0.5]];portConstraint=eastwest;html=1;" parent="1" vertex="1">
          <mxGeometry x="90" y="320" width="80" height="26" as="geometry" />
        </mxCell>
        <mxCell id="AHsOtuEcXlTkWTiuvRRT-2" value="" style="endArrow=open;endFill=1;endSize=12;html=1;rounded=0;entryX=0;entryY=0;entryDx=0;entryDy=15;entryPerimeter=0;exitX=0.25;exitY=1;exitDx=0;exitDy=0;" edge="1" parent="1" source="NOVL12IJOXNxeHSRMeuN-7" target="NOVL12IJOXNxeHSRMeuN-10">
          <mxGeometry width="160" relative="1" as="geometry">
            <mxPoint x="330" y="660" as="sourcePoint" />
            <mxPoint x="490" y="660" as="targetPoint" />
            <Array as="points">
              <mxPoint x="88" y="737" />
            </Array>
          </mxGeometry>
        </mxCell>
        <mxCell id="AHsOtuEcXlTkWTiuvRRT-4" value="" style="endArrow=open;endFill=1;endSize=12;html=1;rounded=0;entryX=0;entryY=1;entryDx=10;entryDy=0;entryPerimeter=0;exitX=0.5;exitY=1;exitDx=0;exitDy=0;" edge="1" parent="1" source="NOVL12IJOXNxeHSRMeuN-7" target="NOVL12IJOXNxeHSRMeuN-5">
          <mxGeometry width="160" relative="1" as="geometry">
            <mxPoint x="98" y="565" as="sourcePoint" />
            <mxPoint x="370" y="732" as="targetPoint" />
            <Array as="points">
              <mxPoint x="115" y="660" />
            </Array>
          </mxGeometry>
        </mxCell>
        <mxCell id="AHsOtuEcXlTkWTiuvRRT-6" value="" style="endArrow=open;endFill=1;endSize=12;html=1;rounded=0;entryX=0.5;entryY=1;entryDx=0;entryDy=0;exitX=1;exitY=0.5;exitDx=0;exitDy=0;" edge="1" parent="1" source="NOVL12IJOXNxeHSRMeuN-5" target="NOVL12IJOXNxeHSRMeuN-9">
          <mxGeometry width="160" relative="1" as="geometry">
            <mxPoint x="125" y="565" as="sourcePoint" />
            <mxPoint x="370" y="670" as="targetPoint" />
            <Array as="points">
              <mxPoint x="620" y="635" />
            </Array>
          </mxGeometry>
        </mxCell>
        <mxCell id="AHsOtuEcXlTkWTiuvRRT-8" value="" style="endArrow=open;endFill=1;endSize=12;html=1;rounded=0;entryX=0.75;entryY=1;entryDx=0;entryDy=0;exitX=1;exitY=0.5;exitDx=0;exitDy=0;" edge="1" parent="1" source="NOVL12IJOXNxeHSRMeuN-10" target="NOVL12IJOXNxeHSRMeuN-9">
          <mxGeometry width="160" relative="1" as="geometry">
            <mxPoint x="460" y="645" as="sourcePoint" />
            <mxPoint x="630" y="570" as="targetPoint" />
            <Array as="points">
              <mxPoint x="650" y="750" />
            </Array>
          </mxGeometry>
        </mxCell>
        <mxCell id="AHsOtuEcXlTkWTiuvRRT-10" value="" style="endArrow=open;endFill=1;endSize=12;html=1;rounded=0;entryX=0;entryY=0;entryDx=0;entryDy=15;exitX=1;exitY=0.25;exitDx=0;exitDy=0;entryPerimeter=0;" edge="1" parent="1" source="NOVL12IJOXNxeHSRMeuN-6" target="NOVL12IJOXNxeHSRMeuN-9">
          <mxGeometry width="160" relative="1" as="geometry">
            <mxPoint x="460" y="645" as="sourcePoint" />
            <mxPoint x="630" y="570" as="targetPoint" />
            <Array as="points" />
          </mxGeometry>
        </mxCell>
        <mxCell id="AHsOtuEcXlTkWTiuvRRT-12" value="" style="endArrow=open;endFill=1;endSize=12;html=1;rounded=0;entryX=0;entryY=0;entryDx=10;entryDy=0;exitX=1;exitY=1;exitDx=0;exitDy=0;entryPerimeter=0;" edge="1" parent="1" source="NOVL12IJOXNxeHSRMeuN-4" target="NOVL12IJOXNxeHSRMeuN-9">
          <mxGeometry width="160" relative="1" as="geometry">
            <mxPoint x="460" y="545" as="sourcePoint" />
            <mxPoint x="580" y="548" as="targetPoint" />
            <Array as="points" />
          </mxGeometry>
        </mxCell>
        <mxCell id="AHsOtuEcXlTkWTiuvRRT-14" value="" style="endArrow=open;endFill=1;endSize=12;html=1;rounded=0;entryX=0;entryY=0;entryDx=0;entryDy=15;exitX=1;exitY=0.25;exitDx=0;exitDy=0;entryPerimeter=0;" edge="1" parent="1" source="NOVL12IJOXNxeHSRMeuN-4" target="NOVL12IJOXNxeHSRMeuN-8">
          <mxGeometry width="160" relative="1" as="geometry">
            <mxPoint x="460" y="545" as="sourcePoint" />
            <mxPoint x="580" y="548" as="targetPoint" />
            <Array as="points" />
          </mxGeometry>
        </mxCell>
        <mxCell id="AHsOtuEcXlTkWTiuvRRT-16" value="" style="endArrow=open;endFill=1;endSize=12;html=1;rounded=0;entryX=0.5;entryY=0;entryDx=0;entryDy=0;exitX=0.5;exitY=1;exitDx=0;exitDy=0;" edge="1" parent="1" source="NOVL12IJOXNxeHSRMeuN-4" target="NOVL12IJOXNxeHSRMeuN-6">
          <mxGeometry width="160" relative="1" as="geometry">
            <mxPoint x="460" y="460" as="sourcePoint" />
            <mxPoint x="580" y="518" as="targetPoint" />
            <Array as="points" />
          </mxGeometry>
        </mxCell>
        <mxCell id="AHsOtuEcXlTkWTiuvRRT-18" value="" style="endArrow=open;endFill=1;endSize=12;html=1;rounded=0;entryX=0;entryY=0;entryDx=0;entryDy=35;exitX=1;exitY=0.75;exitDx=0;exitDy=0;entryPerimeter=0;" edge="1" parent="1" source="NOVL12IJOXNxeHSRMeuN-7" target="NOVL12IJOXNxeHSRMeuN-6">
          <mxGeometry width="160" relative="1" as="geometry">
            <mxPoint x="410" y="460" as="sourcePoint" />
            <mxPoint x="410" y="520" as="targetPoint" />
            <Array as="points" />
          </mxGeometry>
        </mxCell>
        <mxCell id="AHsOtuEcXlTkWTiuvRRT-20" value="" style="endArrow=open;endFill=1;endSize=12;html=1;rounded=0;entryX=0.5;entryY=1;entryDx=0;entryDy=0;exitX=0.5;exitY=0;exitDx=0;exitDy=0;" edge="1" parent="1" source="NOVL12IJOXNxeHSRMeuN-10" target="NOVL12IJOXNxeHSRMeuN-5">
          <mxGeometry width="160" relative="1" as="geometry">
            <mxPoint x="460" y="645" as="sourcePoint" />
            <mxPoint x="630" y="568" as="targetPoint" />
            <Array as="points" />
          </mxGeometry>
        </mxCell>
        <mxCell id="AHsOtuEcXlTkWTiuvRRT-21" value="" style="endArrow=open;endFill=1;endSize=12;html=1;rounded=0;entryX=0.5;entryY=1;entryDx=0;entryDy=0;exitX=0.5;exitY=0;exitDx=0;exitDy=0;" edge="1" parent="1" source="NOVL12IJOXNxeHSRMeuN-5" target="NOVL12IJOXNxeHSRMeuN-6">
          <mxGeometry width="160" relative="1" as="geometry">
            <mxPoint x="435" y="732" as="sourcePoint" />
            <mxPoint x="435" y="670" as="targetPoint" />
            <Array as="points" />
          </mxGeometry>
        </mxCell>
        <mxCell id="AHsOtuEcXlTkWTiuvRRT-22" value="" style="endArrow=open;endFill=1;endSize=12;html=1;rounded=0;exitX=1;exitY=0.5;exitDx=0;exitDy=0;" edge="1" parent="1" source="NOVL12IJOXNxeHSRMeuN-26">
          <mxGeometry width="160" relative="1" as="geometry">
            <mxPoint x="120" y="909.5" as="sourcePoint" />
            <mxPoint x="280" y="911" as="targetPoint" />
            <Array as="points" />
          </mxGeometry>
        </mxCell>
        <mxCell id="AHsOtuEcXlTkWTiuvRRT-24" value="A" style="html=1;whiteSpace=wrap;" vertex="1" parent="1">
          <mxGeometry x="80" y="1000" width="40" height="40" as="geometry" />
        </mxCell>
        <mxCell id="AHsOtuEcXlTkWTiuvRRT-25" value="B" style="html=1;whiteSpace=wrap;" vertex="1" parent="1">
          <mxGeometry x="280" y="1000" width="40" height="40" as="geometry" />
        </mxCell>
        <mxCell id="AHsOtuEcXlTkWTiuvRRT-26" value="" style="endArrow=open;endSize=12;dashed=1;html=1;rounded=0;exitX=1;exitY=0.5;exitDx=0;exitDy=0;entryX=0;entryY=0.5;entryDx=0;entryDy=0;strokeColor=#424242;" edge="1" parent="1" source="AHsOtuEcXlTkWTiuvRRT-24" target="AHsOtuEcXlTkWTiuvRRT-25">
          <mxGeometry width="160" relative="1" as="geometry">
            <mxPoint x="150" y="1030" as="sourcePoint" />
            <mxPoint x="310" y="1030" as="targetPoint" />
          </mxGeometry>
        </mxCell>
        <mxCell id="AHsOtuEcXlTkWTiuvRRT-28" value="Represents A is Test dependent on B" style="text;align=center;fontStyle=1;verticalAlign=middle;spacingLeft=3;spacingRight=3;strokeColor=none;rotatable=0;points=[[0,0.5],[1,0.5]];portConstraint=eastwest;html=1;" vertex="1" parent="1">
          <mxGeometry x="150" y="1050" width="80" height="26" as="geometry" />
        </mxCell>
      </root>
    </mxGraphModel>
  </diagram>
</mxfile>
